# xmcd
#
# Track frame offsets:
# 150
# 22157
# 42425
# 64047
# 78785
#
# Disc length: 1336 seconds
#
# Revision: 1
# Processed by: cddbd v1.5.1PL0 Copyright (c) Steve Scherf et al.
# Submitted via: CedeCatalogueitor 2.6.0.6 http://personales.ya.com/cdcatalogueitor
#
DISCID=38053605
DTITLE=EX3 - Banda Rock
DYEAR=1900
DGENRE=Rock En Español
TTITLE0=En Un Rincon
TTITLE1=Amigos Hoy
TTITLE2=Mi Verdad
TTITLE3=Chica De Cali
TTITLE4=Hotel California
EXTD=
EXTT0=
EXTT1=
EXTT2=
EXTT3=
EXTT4=
PLAYORDER=
